{"accessors":[{"bufferView":1,"componentType":5126,"count":1716,"max":[6.677753925323486,7.677859783172607,15.32988452911377],"min":[-6.003429889678955,-6.409171104431152,-12.548919677734375],"type":"VEC3"},{"bufferView":1,"byteOffset":20592,"componentType":5126,"count":1716,"max":[0.9989984631538391,0.998331606388092,0.9978192448616028],"min":[-0.9997770190238953,-0.9945724606513977,-0.9979465007781982],"type":"VEC3"},{"bufferView":2,"componentType":5126,"count":1716,"max":[0.9934707283973694,0.9953123331069946,0.9985331296920776,1],"min":[-0.9977924823760986,-0.9990542531013489,-0.9996554851531982,-1],"type":"VEC4"},{"bufferView":0,"componentType":5125,"count":5934,"max":[1715],"min":[0],"type":"SCALAR"}],"asset":{"extras":{"author":"jasonin10 (https://sketchfab.com/jasonin10)","license":"CC-BY-4.0 (http://creativecommons.org/licenses/by/4.0/)","source":"https://sketchfab.com/models/d690519cefbd49e4956610d5dd1a267a","title":"Test Middle Finger"},"generator":"Sketchfab-3.18.6","version":"2.0"},"bufferViews":[{"buffer":0,"byteLength":23736,"byteOffset":0,"name":"floatBufferViews","target":34963},{"buffer":0,"byteLength":41184,"byteOffset":23736,"byteStride":12,"name":"floatBufferViews","target":34962},{"buffer":0,"byteLength":27456,"byteOffset":64920,"byteStride":16,"name":"floatBufferViews","target":34962}],"buffers":[{"byteLength":92376,"uri":"data:application/octet-stream;base64,"}],"materials":[{"doubleSided":true,"emissiveFactor":[0,0,0],"name":"material_0","pbrMetallicRoughness":{"baseColorFactor":[1,1,1,1],"metallicFactor":0,"roughnessFactor":0.6}}],"meshes":[{"primitives":[{"attributes":{"NORMAL":1,"POSITION":0,"TANGENT":2},"indices":3,"material":0,"mode":4}]}],"nodes":[{"children":[1],"name":"RootNode (gltf orientation matrix)","rotation":[-0.7071067811865475,0,0,0.7071067811865476]},{"children":[2],"name":"RootNode (model correction matrix)"},{"children":[3],"name":"355106c78385416cbaadd94ffc0b13ee.obj.cleaner.materialmerger.gles"},{"mesh":0,"name":""}],"scene":0,"scenes":[{"name":"OSG_Scene","nodes":[0]}]}